<?xml version="1.0" standalone="no"?>
<!DOCTYPE svg PUBLIC "-//W3C//DTD SVG 20010904//EN"
 "http://www.w3.org/TR/2001/REC-SVG-20010904/DTD/svg10.dtd">
<svg version="1.0" xmlns="http://www.w3.org/2000/svg"
 width="512.000000pt" height="512.000000pt" viewBox="0 0 512.000000 512.000000"
 preserveAspectRatio="xMidYMid meet">
<metadata>
Created by potrace 1.11, written by Peter Selinger 2001-2013
</metadata>
<g transform="translate(0.000000,512.000000) scale(0.100000,-0.100000)"
fill="#000000" stroke="none">
<path d="M343 3708 c-23 -26 -22 -53 2 -77 13 -14 59 -17 320 -21 l303 -5 43
-30 c23 -16 51 -42 61 -56 19 -26 85 -234 93 -297 3 -17 9 -40 15 -50 5 -9 41
-129 80 -267 39 -137 79 -279 89 -315 11 -36 65 -227 121 -425 55 -198 108
-380 118 -404 31 -84 147 -179 240 -198 15 -3 446 -5 957 -5 683 -1 941 2 973
11 81 23 170 88 213 158 11 18 88 232 171 475 292 861 287 846 282 895 -7 74
-41 121 -114 158 -33 17 -117 18 -1529 19 -1317 1 -1495 3 -1502 16 -5 8 -22
64 -39 124 -35 128 -63 179 -126 235 -87 76 -113 81 -453 81 -296 0 -298 0
-318 -22z m3926 -567 c49 -26 46 -49 -28 -270 -167 -496 -305 -903 -337 -992
-38 -105 -67 -141 -143 -180 l-43 -22 -934 0 -933 0 -47 24 c-89 46 -96 60
-191 399 -19 69 -53 188 -75 265 -21 77 -45 163 -53 190 -8 28 -39 138 -70
245 -55 188 -81 281 -92 327 -3 15 0 22 13 25 10 1 669 2 1464 2 1090 -1 1452
-5 1469 -13z"/>
<path d="M1778 2910 c-31 -3 -61 -10 -66 -15 -21 -23 -22 -52 -2 -78 l20 -26
1065 1 c974 0 1067 2 1085 17 28 22 32 56 11 82 l-17 22 -1020 1 c-560 0
-1045 -1 -1076 -4z"/>
<path d="M1866 2448 c-21 -30 -20 -54 4 -78 20 -20 33 -20 930 -20 897 0 910
0 930 20 25 25 26 62 2 83 -17 16 -96 17 -935 17 l-916 0 -15 -22z"/>
<path d="M2008 2016 c-27 -20 -29 -58 -5 -83 l20 -23 778 0 c694 0 779 2 793
16 25 25 24 71 -2 91 -25 19 -1559 18 -1584 -1z"/>
<path d="M2079 1453 c-189 -64 -281 -281 -194 -458 121 -248 463 -248 593 -1
23 44 27 63 27 141 0 103 -18 151 -85 227 -76 87 -231 128 -341 91z m204 -135
c177 -98 115 -377 -85 -389 -130 -8 -240 101 -226 224 18 156 175 240 311 165z"/>
<path d="M3340 1456 c-80 -23 -100 -35 -151 -86 -73 -73 -93 -124 -93 -235 0
-78 3 -97 26 -140 85 -163 273 -232 430 -157 79 37 133 90 167 161 22 47 26
70 26 141 -1 72 -5 93 -29 142 -67 136 -238 215 -376 174z m179 -135 c94 -49
136 -170 92 -267 -62 -137 -236 -168 -341 -60 -165 169 37 435 249 327z"/>
</g>
</svg>
